# Blender v3.1.2 OBJ File: ''
# www.blender.org
mtllib low_poly.mtl
o Cylinder
v 0.000000 0.010399 -0.044470
v -0.000000 0.240434 -0.044470
v 0.008676 0.010399 -0.043615
v 0.008676 0.240434 -0.043615
v 0.017018 0.010399 -0.041085
v 0.017018 0.240434 -0.041085
v 0.024706 0.010399 -0.036975
v 0.024706 0.240434 -0.036975
v 0.031445 0.010399 -0.031445
v 0.031445 0.240434 -0.031445
v 0.036975 0.010399 -0.024706
v 0.036975 0.240434 -0.024706
v 0.041085 0.010399 -0.017018
v 0.041085 0.240434 -0.017018
v 0.043615 0.010399 -0.008676
v 0.043615 0.240434 -0.008676
v 0.044470 0.010399 0.000000
v 0.044470 0.240434 0.000000
v 0.043615 0.010399 0.008676
v 0.043615 0.240434 0.008676
v 0.041085 0.010399 0.017018
v 0.041085 0.240434 0.017018
v 0.036975 0.010399 0.024706
v 0.036975 0.240434 0.024706
v 0.031445 0.010399 0.031445
v 0.031445 0.240434 0.031445
v 0.024706 0.010399 0.036975
v 0.024706 0.240434 0.036975
v 0.017018 0.010399 0.041085
v 0.017018 0.240434 0.041085
v 0.008676 0.010399 0.043615
v 0.008676 0.240434 0.043615
v -0.000000 0.010399 0.044470
v -0.000000 0.240434 0.044470
v -0.008676 0.010399 0.043615
v -0.008676 0.240434 0.043615
v -0.017018 0.010399 0.041085
v -0.017018 0.240434 0.041085
v -0.024706 0.010399 0.036975
v -0.024706 0.240434 0.036975
v -0.031445 0.010399 0.031445
v -0.031445 0.240434 0.031445
v -0.036975 0.010399 0.024706
v -0.036975 0.240434 0.024706
v -0.041085 0.010399 0.017018
v -0.041085 0.240434 0.017018
v -0.043615 0.010399 0.008676
v -0.043615 0.240434 0.008676
v -0.044470 0.010399 -0.000000
v -0.044470 0.240434 -0.000000
v -0.043615 0.010399 -0.008676
v -0.043615 0.240434 -0.008676
v -0.041085 0.010399 -0.017018
v -0.041085 0.240434 -0.017018
v -0.036975 0.010399 -0.024706
v -0.036975 0.240434 -0.024706
v -0.031445 0.010399 -0.031445
v -0.031445 0.240434 -0.031445
v -0.024706 0.010399 -0.036975
v -0.024706 0.240434 -0.036975
v -0.017018 0.010399 -0.041085
v -0.017018 0.240434 -0.041085
v -0.008676 0.010399 -0.043615
v -0.008676 0.240434 -0.043615
v 0.000000 0.240989 -0.188724
v 0.036818 0.240989 -0.185097
v 0.072221 0.240989 -0.174358
v 0.104849 0.240989 -0.156918
v 0.133448 0.240989 -0.133448
v 0.156918 0.240989 -0.104849
v 0.174358 0.240989 -0.072221
v 0.185097 0.240989 -0.036818
v 0.188724 0.240989 0.000000
v 0.185097 0.240989 0.036818
v 0.174358 0.240989 0.072221
v 0.156918 0.240989 0.104849
v 0.133448 0.240989 0.133448
v 0.104849 0.240989 0.156918
v 0.072221 0.240989 0.174358
v 0.036818 0.240989 0.185097
v -0.000000 0.240989 0.188724
v -0.036818 0.240989 0.185097
v -0.072221 0.240989 0.174358
v -0.104849 0.240989 0.156918
v -0.133448 0.240989 0.133448
v -0.156918 0.240989 0.104849
v -0.174358 0.240989 0.072221
v -0.185097 0.240989 0.036818
v -0.188724 0.240989 0.000000
v -0.185097 0.240989 -0.036818
v -0.174358 0.240989 -0.072221
v -0.156918 0.240989 -0.104849
v -0.133448 0.240989 -0.133448
v -0.104849 0.240989 -0.156918
v -0.072221 0.240989 -0.174358
v -0.036818 0.240989 -0.185097
v 0.000000 0.977403 0.000000
vt 1.000000 1.000000
vt 0.968750 0.500000
vt 1.000000 0.500000
vt 0.968750 1.000000
vt 0.937500 0.500000
vt 0.937500 1.000000
vt 0.906250 0.500000
vt 0.906250 1.000000
vt 0.875000 0.500000
vt 0.875000 1.000000
vt 0.843750 0.500000
vt 0.843750 1.000000
vt 0.812500 0.500000
vt 0.812500 1.000000
vt 0.781250 0.500000
vt 0.781250 1.000000
vt 0.750000 0.500000
vt 0.718750 1.000000
vt 0.718750 0.500000
vt 0.687500 0.500000
vt 0.687500 1.000000
vt 0.656250 0.500000
vt 0.656250 1.000000
vt 0.625000 0.500000
vt 0.625000 1.000000
vt 0.593750 0.500000
vt 0.593750 1.000000
vt 0.562500 0.500000
vt 0.562500 1.000000
vt 0.531250 0.500000
vt 0.531250 1.000000
vt 0.500000 0.500000
vt 0.500000 1.000000
vt 0.468750 0.500000
vt 0.468750 1.000000
vt 0.437500 0.500000
vt 0.437500 1.000000
vt 0.406250 0.500000
vt 0.406250 1.000000
vt 0.375000 0.500000
vt 0.375000 1.000000
vt 0.343750 0.500000
vt 0.343750 1.000000
vt 0.312500 0.500000
vt 0.312500 1.000000
vt 0.281250 0.500000
vt 0.281250 1.000000
vt 0.250000 0.500000
vt 0.250000 1.000000
vt 0.218750 0.500000
vt 0.218750 1.000000
vt 0.187500 0.500000
vt 0.187500 1.000000
vt 0.156250 0.500000
vt 0.156250 1.000000
vt 0.125000 0.500000
vt 0.125000 1.000000
vt 0.093750 0.500000
vt 0.093750 1.000000
vt 0.062500 0.500000
vt 0.158156 0.028269
vt 0.471731 0.158156
vt 0.341844 0.471731
vt 0.062500 1.000000
vt 0.031250 0.500000
vt 0.031250 1.000000
vt 0.000000 0.500000
vt 0.985388 0.296822
vt 0.796822 0.014612
vt 0.514612 0.203178
vt 0.250000 0.490000
vt 0.250000 0.250000
vt 0.296822 0.485388
vt 0.341844 0.471731
vt 0.383337 0.449553
vt 0.419706 0.419706
vt 0.449553 0.383337
vt 0.471731 0.341844
vt 0.485388 0.296822
vt 0.490000 0.250000
vt 0.485388 0.203178
vt 0.471731 0.158156
vt 0.449553 0.116663
vt 0.419706 0.080294
vt 0.383337 0.050447
vt 0.341844 0.028269
vt 0.296822 0.014612
vt 0.250000 0.010000
vt 0.203178 0.014612
vt 0.158156 0.028269
vt 0.116663 0.050447
vt 0.080294 0.080294
vt 0.050447 0.116663
vt 0.028269 0.158156
vt 0.014612 0.203178
vt 0.010000 0.250000
vt 0.014612 0.296822
vt 0.028269 0.341844
vt 0.050447 0.383337
vt 0.080294 0.419706
vt 0.116663 0.449553
vt 0.158156 0.471731
vt 0.796822 0.014612
vt 0.514612 0.203178
vt 0.703178 0.485388
vt 0.203178 0.485388
vt 0.750000 1.000000
vt 0.296822 0.485388
vt 0.158156 0.471731
vt 0.250000 0.490000
vt 0.203178 0.485388
vt 0.116663 0.449553
vt 0.080294 0.419706
vt 0.050447 0.383337
vt 0.028269 0.341844
vt 0.014612 0.296822
vt 0.010000 0.250000
vt 0.014612 0.203178
vt 0.028269 0.158156
vt 0.050447 0.116663
vt 0.080294 0.080294
vt 0.116663 0.050447
vt 0.203178 0.014612
vt 0.250000 0.010000
vt 0.296822 0.014612
vt 0.341844 0.028269
vt 0.383337 0.050447
vt 0.419706 0.080294
vt 0.449553 0.116663
vt 0.485388 0.203178
vt 0.471731 0.341844
vt 0.490000 0.250000
vt 0.485388 0.296822
vt 0.449553 0.383337
vt 0.419706 0.419706
vt 0.383337 0.449553
vt 0.000000 1.000000
vt 0.703178 0.485388
vt 0.750000 0.490000
vt 0.796822 0.485388
vt 0.841844 0.471731
vt 0.883337 0.449553
vt 0.919706 0.419706
vt 0.949553 0.383337
vt 0.971731 0.341844
vt 0.990000 0.250000
vt 0.985388 0.203178
vt 0.971731 0.158156
vt 0.949553 0.116663
vt 0.919706 0.080294
vt 0.883337 0.050447
vt 0.841844 0.028269
vt 0.750000 0.010000
vt 0.703178 0.014612
vt 0.658156 0.028269
vt 0.616663 0.050447
vt 0.580294 0.080294
vt 0.550447 0.116663
vt 0.528269 0.158156
vt 0.510000 0.250000
vt 0.514612 0.296822
vt 0.528269 0.341844
vt 0.550447 0.383337
vt 0.580294 0.419706
vt 0.616663 0.449553
vt 0.658156 0.471731
vt 0.750000 0.490000
vt 0.796822 0.485388
vt 0.841844 0.471731
vt 0.883337 0.449553
vt 0.919706 0.419706
vt 0.985388 0.296822
vt 0.949553 0.383337
vt 0.971731 0.341844
vt 0.990000 0.250000
vt 0.949553 0.116663
vt 0.985388 0.203178
vt 0.971731 0.158156
vt 0.919706 0.080294
vt 0.883337 0.050447
vt 0.841844 0.028269
vt 0.750000 0.010000
vt 0.703178 0.014612
vt 0.658156 0.028269
vt 0.616663 0.050447
vt 0.580294 0.080294
vt 0.550447 0.116663
vt 0.528269 0.158156
vt 0.510000 0.250000
vt 0.550447 0.383337
vt 0.514612 0.296822
vt 0.528269 0.341844
vt 0.580294 0.419706
vt 0.616663 0.449553
vt 0.658156 0.471731
vn 0.0980 0.0000 -0.9952
vn 0.2903 0.0000 -0.9569
vn 0.4714 0.0000 -0.8819
vn 0.6344 0.0000 -0.7730
vn 0.7730 0.0000 -0.6344
vn 0.8819 0.0000 -0.4714
vn 0.9569 0.0000 -0.2903
vn 0.9952 0.0000 -0.0980
vn 0.9952 -0.0000 0.0980
vn 0.9569 0.0000 0.2903
vn 0.8819 0.0000 0.4714
vn 0.7730 0.0000 0.6344
vn 0.6344 0.0000 0.7730
vn 0.4714 0.0000 0.8819
vn 0.2903 0.0000 0.9569
vn 0.0980 0.0000 0.9952
vn -0.0980 0.0000 0.9952
vn -0.2903 0.0000 0.9569
vn -0.4714 0.0000 0.8819
vn -0.6344 0.0000 0.7730
vn -0.7730 0.0000 0.6344
vn -0.8819 0.0000 0.4714
vn -0.9569 -0.0000 0.2903
vn -0.9952 0.0000 0.0980
vn -0.9952 0.0000 -0.0980
vn -0.9569 0.0000 -0.2903
vn -0.8819 0.0000 -0.4714
vn -0.7730 0.0000 -0.6344
vn -0.6344 0.0000 -0.7730
vn -0.4714 0.0000 -0.8819
vn 0.0000 1.0000 0.0000
vn -0.2903 0.0000 -0.9569
vn -0.0980 0.0000 -0.9952
vn 0.0000 -1.0000 0.0000
vn 0.0950 0.2471 -0.9643
vn 0.2813 0.2471 -0.9273
vn 0.4568 0.2471 -0.8546
vn 0.6147 0.2471 -0.7490
vn 0.7490 0.2471 -0.6147
vn 0.8546 0.2471 -0.4568
vn 0.9273 0.2471 -0.2813
vn 0.9643 0.2471 -0.0950
vn 0.9643 0.2471 0.0950
vn 0.9273 0.2471 0.2813
vn 0.8546 0.2471 0.4568
vn 0.7490 0.2471 0.6147
vn 0.6147 0.2471 0.7490
vn 0.4568 0.2471 0.8546
vn 0.2813 0.2471 0.9273
vn 0.0950 0.2471 0.9643
vn -0.0950 0.2471 0.9643
vn -0.2813 0.2471 0.9273
vn -0.4568 0.2471 0.8546
vn -0.6147 0.2471 0.7490
vn -0.7490 0.2471 0.6147
vn -0.8546 0.2471 0.4568
vn -0.9273 0.2471 0.2813
vn -0.9643 0.2471 0.0950
vn -0.9643 0.2471 -0.0950
vn -0.9273 0.2471 -0.2813
vn -0.8546 0.2471 -0.4568
vn -0.7490 0.2471 -0.6147
vn -0.6147 0.2471 -0.7490
vn -0.4568 0.2471 -0.8546
vn -0.2813 0.2471 -0.9273
vn -0.0950 0.2471 -0.9643
usemtl None
s off
f 2/1/1 3/2/1 1/3/1
f 4/4/2 5/5/2 3/2/2
f 6/6/3 7/7/3 5/5/3
f 8/8/4 9/9/4 7/7/4
f 10/10/5 11/11/5 9/9/5
f 12/12/6 13/13/6 11/11/6
f 14/14/7 15/15/7 13/13/7
f 16/16/8 17/17/8 15/15/8
f 17/17/9 20/18/9 19/19/9
f 20/18/10 21/20/10 19/19/10
f 22/21/11 23/22/11 21/20/11
f 24/23/12 25/24/12 23/22/12
f 26/25/13 27/26/13 25/24/13
f 28/27/14 29/28/14 27/26/14
f 30/29/15 31/30/15 29/28/15
f 32/31/16 33/32/16 31/30/16
f 34/33/17 35/34/17 33/32/17
f 36/35/18 37/36/18 35/34/18
f 38/37/19 39/38/19 37/36/19
f 40/39/20 41/40/20 39/38/20
f 42/41/21 43/42/21 41/40/21
f 44/43/22 45/44/22 43/42/22
f 46/45/23 47/46/23 45/44/23
f 48/47/24 49/48/24 47/46/24
f 50/49/25 51/50/25 49/48/25
f 52/51/26 53/52/26 51/50/26
f 54/53/27 55/54/27 53/52/27
f 56/55/28 57/56/28 55/54/28
f 58/57/29 59/58/29 57/56/29
f 60/59/30 61/60/30 59/58/30
f 38/61/31 22/62/31 6/63/31
f 62/64/32 63/65/32 61/60/32
f 64/66/33 1/67/33 63/65/33
f 15/68/34 31/69/34 47/70/34
f 65/71/35 97/72/35 66/73/35
f 66/73/36 97/72/36 67/74/36
f 67/74/37 97/72/37 68/75/37
f 68/75/38 97/72/38 69/76/38
f 69/76/39 97/72/39 70/77/39
f 70/77/40 97/72/40 71/78/40
f 71/78/41 97/72/41 72/79/41
f 72/79/42 97/72/42 73/80/42
f 73/80/43 97/72/43 74/81/43
f 74/81/44 97/72/44 75/82/44
f 75/82/45 97/72/45 76/83/45
f 76/83/46 97/72/46 77/84/46
f 77/84/47 97/72/47 78/85/47
f 78/85/48 97/72/48 79/86/48
f 79/86/49 97/72/49 80/87/49
f 80/87/50 97/72/50 81/88/50
f 81/88/51 97/72/51 82/89/51
f 82/89/52 97/72/52 83/90/52
f 83/90/53 97/72/53 84/91/53
f 84/91/54 97/72/54 85/92/54
f 85/92/55 97/72/55 86/93/55
f 86/93/56 97/72/56 87/94/56
f 87/94/57 97/72/57 88/95/57
f 88/95/58 97/72/58 89/96/58
f 89/96/59 97/72/59 90/97/59
f 90/97/60 97/72/60 91/98/60
f 91/98/61 97/72/61 92/99/61
f 92/99/62 97/72/62 93/100/62
f 93/100/63 97/72/63 94/101/63
f 94/101/64 97/72/64 95/102/64
f 80/103/34 88/104/34 96/105/34
f 95/102/65 97/72/65 96/106/65
f 96/106/66 97/72/66 65/71/66
f 2/1/1 4/4/1 3/2/1
f 4/4/2 6/6/2 5/5/2
f 6/6/3 8/8/3 7/7/3
f 8/8/4 10/10/4 9/9/4
f 10/10/5 12/12/5 11/11/5
f 12/12/6 14/14/6 13/13/6
f 14/14/7 16/16/7 15/15/7
f 16/16/8 18/107/8 17/17/8
f 17/17/9 18/107/9 20/18/9
f 20/18/10 22/21/10 21/20/10
f 22/21/11 24/23/11 23/22/11
f 24/23/12 26/25/12 25/24/12
f 26/25/13 28/27/13 27/26/13
f 28/27/14 30/29/14 29/28/14
f 30/29/15 32/31/15 31/30/15
f 32/31/16 34/33/16 33/32/16
f 34/33/17 36/35/17 35/34/17
f 36/35/18 38/37/18 37/36/18
f 38/37/19 40/39/19 39/38/19
f 40/39/20 42/41/20 41/40/20
f 42/41/21 44/43/21 43/42/21
f 44/43/22 46/45/22 45/44/22
f 46/45/23 48/47/23 47/46/23
f 48/47/24 50/49/24 49/48/24
f 50/49/25 52/51/25 51/50/25
f 52/51/26 54/53/26 53/52/26
f 54/53/27 56/55/27 55/54/27
f 56/55/28 58/57/28 57/56/28
f 58/57/29 60/59/29 59/58/29
f 60/59/30 62/64/30 61/60/30
f 6/63/31 4/108/31 62/109/31
f 4/108/31 2/110/31 62/109/31
f 2/110/31 64/111/31 62/109/31
f 62/109/31 60/112/31 58/113/31
f 58/113/31 56/114/31 54/115/31
f 54/115/31 52/116/31 50/117/31
f 50/117/31 48/118/31 54/115/31
f 48/118/31 46/119/31 54/115/31
f 46/119/31 44/120/31 42/121/31
f 42/121/31 40/122/31 38/61/31
f 38/61/31 36/123/31 34/124/31
f 34/124/31 32/125/31 30/126/31
f 30/126/31 28/127/31 26/128/31
f 26/128/31 24/129/31 22/62/31
f 22/62/31 20/130/31 14/131/31
f 20/130/31 18/132/31 14/131/31
f 18/132/31 16/133/31 14/131/31
f 14/131/31 12/134/31 10/135/31
f 10/135/31 8/136/31 6/63/31
f 62/109/31 58/113/31 6/63/31
f 58/113/31 54/115/31 6/63/31
f 46/119/31 42/121/31 54/115/31
f 42/121/31 38/61/31 54/115/31
f 38/61/31 34/124/31 30/126/31
f 30/126/31 26/128/31 38/61/31
f 26/128/31 22/62/31 38/61/31
f 14/131/31 10/135/31 22/62/31
f 10/135/31 6/63/31 22/62/31
f 6/63/31 54/115/31 38/61/31
f 62/64/32 64/66/32 63/65/32
f 64/66/33 2/137/33 1/67/33
f 63/138/34 1/139/34 3/140/34
f 3/140/34 5/141/34 7/142/34
f 7/142/34 9/143/34 11/144/34
f 11/144/34 13/145/34 15/68/34
f 15/68/34 17/146/34 19/147/34
f 19/147/34 21/148/34 23/149/34
f 23/149/34 25/150/34 27/151/34
f 27/151/34 29/152/34 31/69/34
f 31/69/34 33/153/34 35/154/34
f 35/154/34 37/155/34 39/156/34
f 39/156/34 41/157/34 43/158/34
f 43/158/34 45/159/34 47/70/34
f 47/70/34 49/160/34 51/161/34
f 51/161/34 53/162/34 47/70/34
f 53/162/34 55/163/34 47/70/34
f 55/163/34 57/164/34 59/165/34
f 59/165/34 61/166/34 55/163/34
f 61/166/34 63/138/34 55/163/34
f 63/138/34 3/140/34 15/68/34
f 3/140/34 7/142/34 15/68/34
f 7/142/34 11/144/34 15/68/34
f 15/68/34 19/147/34 23/149/34
f 23/149/34 27/151/34 15/68/34
f 27/151/34 31/69/34 15/68/34
f 31/69/34 35/154/34 47/70/34
f 35/154/34 39/156/34 47/70/34
f 39/156/34 43/158/34 47/70/34
f 47/70/34 55/163/34 63/138/34
f 63/138/34 15/68/34 47/70/34
f 96/105/34 65/167/34 66/168/34
f 66/168/34 67/169/34 68/170/34
f 68/170/34 69/171/34 72/172/34
f 69/171/34 70/173/34 72/172/34
f 70/173/34 71/174/34 72/172/34
f 72/172/34 73/175/34 76/176/34
f 73/175/34 74/177/34 76/176/34
f 74/177/34 75/178/34 76/176/34
f 76/176/34 77/179/34 78/180/34
f 78/180/34 79/181/34 76/176/34
f 79/181/34 80/103/34 76/176/34
f 80/103/34 81/182/34 82/183/34
f 82/183/34 83/184/34 80/103/34
f 83/184/34 84/185/34 80/103/34
f 84/185/34 85/186/34 86/187/34
f 86/187/34 87/188/34 88/104/34
f 88/104/34 89/189/34 92/190/34
f 89/189/34 90/191/34 92/190/34
f 90/191/34 91/192/34 92/190/34
f 92/190/34 93/193/34 94/194/34
f 94/194/34 95/195/34 96/105/34
f 96/105/34 66/168/34 72/172/34
f 66/168/34 68/170/34 72/172/34
f 84/185/34 86/187/34 80/103/34
f 86/187/34 88/104/34 80/103/34
f 92/190/34 94/194/34 88/104/34
f 94/194/34 96/105/34 88/104/34
f 72/172/34 76/176/34 80/103/34
f 96/105/34 72/172/34 80/103/34
